<svg width="1200" height="630" viewBox="0 0 1200 630" fill="none" xmlns="http://www.w3.org/2000/svg">
  <rect width="1200" height="630" fill="#08111D"/>
  <rect width="1200" height="630" fill="url(#bg)"/>
  <circle cx="170" cy="110" r="180" fill="#22D3EE" fill-opacity="0.18"/>
  <circle cx="1040" cy="120" r="150" fill="#F472B6" fill-opacity="0.16"/>
  <circle cx="980" cy="530" r="180" fill="#60A5FA" fill-opacity="0.12"/>
  <rect x="70" y="70" width="74" height="74" rx="24" fill="white" fill-opacity="0.08" stroke="white" stroke-opacity="0.12"/>
  <path d="M107 92L90 117H103L98 136L124 108H110L117 92H107Z" fill="#B6F2FF"/>
  <text x="170" y="96" fill="#B6F2FF" font-family="Arial, sans-serif" font-size="18" letter-spacing="5">CREATOR REVENUE OS</text>
  <text x="170" y="132" fill="white" font-family="Arial, sans-serif" font-size="30" font-weight="700">Influencer Finder</text>
  <text x="78" y="262" fill="white" font-family="Georgia, serif" font-size="72" font-weight="700">
    <tspan x="78" dy="0">Descubra creators com</tspan>
    <tspan x="78" dy="86">potencial de venda antes</tspan>
    <tspan x="78" dy="86">de aumentar o CAC.</tspan>
  </text>
  <text x="80" y="548" fill="#D9E7F5" font-family="Arial, sans-serif" font-size="30">
    Encontre influenciadores, gere outreach com IA e saia do caos da prospeccao.
  </text>
  <g opacity="0.95">
    <rect x="760" y="182" width="340" height="264" rx="34" fill="white" fill-opacity="0.08" stroke="white" stroke-opacity="0.12"/>
    <rect x="792" y="222" width="276" height="66" rx="24" fill="white" fill-opacity="0.08"/>
    <rect x="792" y="306" width="276" height="66" rx="24" fill="white" fill-opacity="0.05"/>
    <rect x="792" y="390" width="276" height="66" rx="24" fill="white" fill-opacity="0.05"/>
    <text x="822" y="260" fill="white" font-family="Arial, sans-serif" font-size="24" font-weight="700">@shapecomanna</text>
    <text x="822" y="336" fill="white" font-family="Arial, sans-serif" font-size="24" font-weight="700">@rotinadelucrar</text>
    <text x="822" y="420" fill="white" font-family="Arial, sans-serif" font-size="24" font-weight="700">@vidacomproposito</text>
    <text x="822" y="286" fill="#B6F2FF" font-family="Arial, sans-serif" font-size="18">fit alto • email valido • outreach pronto</text>
    <text x="822" y="362" fill="#B6F2FF" font-family="Arial, sans-serif" font-size="18">fit medio • oferta premium • CSV pronto</text>
    <text x="822" y="446" fill="#B6F2FF" font-family="Arial, sans-serif" font-size="18">fit alto • creator consultivo • favorito</text>
  </g>
  <defs>
    <linearGradient id="bg" x1="96" y1="32" x2="1113" y2="628" gradientUnits="userSpaceOnUse">
      <stop stop-color="#102235"/>
      <stop offset="0.48" stop-color="#18344D"/>
      <stop offset="1" stop-color="#0B1828"/>
    </linearGradient>
  </defs>
</svg>
